
            <svg data-logo="logo" xmlns="http://www.w3.org/2000/svg" viewBox="0 0 222 41">
                <g id="logogram" transform="translate(0, 0)"><path fill-rule="evenodd" clip-rule="evenodd" d="M13.8815 0.782715C11.6251 0.782715 9.46117 1.67905 7.86568 3.27454L0.16687 10.9734V14.4973C0.16687 16.987 1.23631 19.2269 2.94088 20.7827C1.23631 22.3385 0.16687 24.5784 0.16687 27.0681V30.5921L7.86568 38.2909C9.46117 39.8864 11.6251 40.7827 13.8815 40.7827C16.3712 40.7827 18.6111 39.7133 20.1669 38.0087C21.7227 39.7133 23.9626 40.7827 26.4523 40.7827C28.7086 40.7827 30.8726 39.8864 32.4681 38.2909L40.1669 30.5921V27.0681C40.1669 24.5784 39.0974 22.3385 37.3929 20.7827C39.0974 19.2269 40.1669 16.987 40.1669 14.4973V10.9734L32.4681 3.27454C30.8726 1.67905 28.7086 0.782715 26.4523 0.782715C23.9626 0.782715 21.7227 1.85216 20.1669 3.55672C18.6111 1.85216 16.3712 0.782715 13.8815 0.782715ZM25.9257 20.7827C25.8298 20.6952 25.7357 20.6053 25.6435 20.5131L20.1669 15.0365L14.6903 20.5131C14.5981 20.6053 14.5039 20.6952 14.408 20.7827C14.5039 20.8702 14.5981 20.9601 14.6903 21.0523L20.1669 26.5289L25.6435 21.0523C25.7357 20.9601 25.8298 20.8702 25.9257 20.7827ZM22.3891 30.5921L22.3891 32.2751C22.3891 34.5191 24.2082 36.3383 26.4523 36.3383C27.5299 36.3383 28.5634 35.9102 29.3254 35.1482L35.7224 28.7511V27.0681C35.7224 24.8241 33.9033 23.0049 31.6593 23.0049C30.5816 23.0049 29.5482 23.433 28.7862 24.195L22.3891 30.5921ZM17.9446 30.5921L11.5476 24.195C10.7856 23.433 9.75211 23.0049 8.67449 23.0049C6.43046 23.0049 4.61131 24.8241 4.61131 27.0681V28.7511L11.0084 35.1482C11.7704 35.9102 12.8039 36.3383 13.8815 36.3383C16.1255 36.3383 17.9446 34.5191 17.9446 32.2751V30.5921ZM17.9446 9.29033V10.9734L11.5476 17.3704C10.7856 18.1324 9.75211 18.5605 8.67449 18.5605C6.43046 18.5605 4.61131 16.7413 4.61131 14.4973V12.8143L11.0084 6.41723C11.7704 5.65524 12.8039 5.22716 13.8815 5.22716C16.1255 5.22716 17.9446 7.0463 17.9446 9.29033ZM28.7862 17.3704L22.3891 10.9734L22.3891 9.29033C22.3891 7.0463 24.2082 5.22716 26.4523 5.22716C27.5299 5.22716 28.5634 5.65524 29.3254 6.41723L35.7224 12.8143V14.4973C35.7224 16.7413 33.9033 18.5605 31.6593 18.5605C30.5816 18.5605 29.5482 18.1324 28.7862 17.3704Z" fill="#FF630B"/></g>
                <g id="logotype" transform="translate(47, 3)"><path fill="#111111" d="M11.51 35L6.19 35L17.05 9.35L22.56 9.35L33.30 35L27.79 35L25.16 28.73L14.20 28.73L11.51 35ZM19.71 14.99L15.88 24.23L23.70 24.23L19.87 14.99L19.71 14.99ZM43.02 35.38L43.02 35.38Q40.04 35.38 37.81 34.16Q35.58 32.94 34.33 30.73Q33.07 28.51 33.07 25.50L33.07 25.50Q33.07 22.49 34.31 20.27Q35.54 18.06 37.79 16.84Q40.04 15.62 43.02 15.62L43.02 15.62Q46.79 15.62 49.22 17.52Q51.66 19.42 52.30 22.74L52.30 22.74L47.01 22.74Q46.60 21.51 45.58 20.84Q44.57 20.18 43.02 20.18L43.02 20.18Q40.90 20.18 39.61 21.57Q38.33 22.97 38.33 25.50L38.33 25.50Q38.33 28.03 39.63 29.43Q40.93 30.82 43.02 30.82L43.02 30.82Q46.37 30.82 47.10 27.97L47.10 27.97L52.39 27.97Q51.82 31.45 49.38 33.42Q46.94 35.38 43.02 35.38ZM60.18 35L54.92 35L54.92 21.19L52.33 21.19L52.33 16L57.65 16L57.65 19.10L59.04 19.10Q60.05 17.46 61.67 16.55Q63.28 15.65 65.66 15.65L65.66 15.65Q67.94 15.65 69.57 16.46Q71.20 17.27 72.18 18.85L72.18 18.85L72.31 18.85Q74.50 15.65 78.80 15.65L78.80 15.65Q82.47 15.65 84.63 17.79Q86.78 19.93 86.78 23.57L86.78 23.57L86.78 35L81.53 35L81.53 24.58Q81.53 20.34 77.50 20.34L77.50 20.34Q73.48 20.34 73.48 24.58L73.48 24.58L73.48 35L68.22 35L68.22 24.58Q68.22 20.34 64.14 20.34L64.14 20.34Q62.18 20.34 61.18 21.38Q60.18 22.43 60.18 24.58L60.18 24.58L60.18 35ZM98.72 35.38L98.72 35.38Q95.65 35.38 93.37 34.16Q91.09 32.94 89.85 30.71Q88.62 28.48 88.62 25.44L88.62 25.44Q88.62 22.40 89.82 20.20Q91.03 17.99 93.26 16.81Q95.49 15.62 98.53 15.62L98.53 15.62Q101.51 15.62 103.64 16.76Q105.78 17.90 106.92 20.02Q108.06 22.14 108.06 25.09L108.06 25.09L108.06 26.86L93.65 26.86Q93.97 28.98 95.27 30.09Q96.57 31.20 98.69 31.20L98.69 31.20Q100.37 31.20 101.35 30.63Q102.33 30.06 102.74 28.89L102.74 28.89L108.00 28.89Q107.37 31.93 104.93 33.65Q102.49 35.38 98.72 35.38ZM93.78 23.38L93.78 23.38L103.03 23.38Q102.77 21.57 101.63 20.67Q100.49 19.77 98.56 19.77L98.56 19.77Q96.63 19.77 95.41 20.69Q94.19 21.60 93.78 23.38ZM132.70 35L126.43 35L116.20 9.35L122.09 9.35L129.59 28.92L129.75 28.92L137.16 9.35L142.93 9.35L132.70 35ZM150.46 35.38L150.46 35.38Q147.39 35.38 145.11 34.16Q142.83 32.94 141.60 30.71Q140.36 28.48 140.36 25.44L140.36 25.44Q140.36 22.40 141.57 20.20Q142.77 17.99 145.00 16.81Q147.23 15.62 150.27 15.62L150.27 15.62Q153.25 15.62 155.39 16.76Q157.53 17.90 158.67 20.02Q159.81 22.14 159.81 25.09L159.81 25.09L159.81 26.86L145.40 26.86Q145.71 28.98 147.01 30.09Q148.31 31.20 150.43 31.20L150.43 31.20Q152.11 31.20 153.09 30.63Q154.07 30.06 154.49 28.89L154.49 28.89L159.74 28.89Q159.11 31.93 156.67 33.65Q154.23 35.38 150.46 35.38ZM145.52 23.38L145.52 23.38L154.77 23.38Q154.52 21.57 153.38 20.67Q152.24 19.77 150.31 19.77L150.31 19.77Q148.37 19.77 147.15 20.69Q145.94 21.60 145.52 23.38ZM173.58 35L167.82 35Q165.79 35 164.67 33.97Q163.54 32.94 163.54 30.82L163.54 30.82L163.54 20.12L160.28 20.12L160.28 16L163.61 16L163.61 10.30L168.74 10.30L168.74 16L173.14 16L173.14 20.12L168.80 20.12L168.80 30.88L173.58 30.88L173.58 35Z"/></g>
                
            </svg>
        